<svg width="120" height="120" viewBox="0 0 120 120" fill="none" xmlns="http://www.w3.org/2000/svg">
  <rect width="120" height="120" fill="white"/>
  <rect x="10" y="10" width="28" height="28" fill="#111111"/>
  <rect x="15" y="15" width="18" height="18" fill="white"/>
  <rect x="18" y="18" width="12" height="12" fill="#111111"/>
  <rect x="82" y="10" width="28" height="28" fill="#111111"/>
  <rect x="87" y="15" width="18" height="18" fill="white"/>
  <rect x="90" y="18" width="12" height="12" fill="#111111"/>
  <rect x="10" y="82" width="28" height="28" fill="#111111"/>
  <rect x="15" y="87" width="18" height="18" fill="white"/>
  <rect x="18" y="90" width="12" height="12" fill="#111111"/>
  <rect x="48" y="12" width="8" height="8" fill="#111111"/>
  <rect x="60" y="12" width="8" height="8" fill="#111111"/>
  <rect x="48" y="24" width="8" height="8" fill="#111111"/>
  <rect x="60" y="24" width="8" height="8" fill="#111111"/>
  <rect x="72" y="24" width="8" height="8" fill="#111111"/>
  <rect x="48" y="40" width="8" height="8" fill="#111111"/>
  <rect x="56" y="48" width="8" height="8" fill="#111111"/>
  <rect x="64" y="40" width="8" height="8" fill="#111111"/>
  <rect x="40" y="56" width="8" height="8" fill="#111111"/>
  <rect x="52" y="60" width="8" height="8" fill="#111111"/>
  <rect x="64" y="56" width="8" height="8" fill="#111111"/>
  <rect x="76" y="52" width="8" height="8" fill="#111111"/>
  <rect x="88" y="48" width="8" height="8" fill="#111111"/>
  <rect x="44" y="72" width="8" height="8" fill="#111111"/>
  <rect x="56" y="76" width="8" height="8" fill="#111111"/>
  <rect x="68" y="72" width="8" height="8" fill="#111111"/>
  <rect x="80" y="76" width="8" height="8" fill="#111111"/>
  <rect x="92" y="64" width="8" height="8" fill="#111111"/>
  <rect x="44" y="88" width="8" height="8" fill="#111111"/>
  <rect x="56" y="92" width="8" height="8" fill="#111111"/>
  <rect x="68" y="88" width="8" height="8" fill="#111111"/>
  <rect x="80" y="92" width="8" height="8" fill="#111111"/>
  <rect x="92" y="88" width="8" height="8" fill="#111111"/>
</svg>
